# xmcd CD database file
#
# Track frame offsets:
#	150
#	13638
#	25849
#	48320
#	59345
#	74714
#	86474
#	100182
#	112620
#	130948
#	142525
#	155654
#
# Disc length: 2221 seconds
#
# Revision: 0
# Processed by: cddbd v1.5.2PL0 Copyright (c) Steve Scherf et al.
# Submitted via: CDex 1.51
#
DISCID=9308ab0c
DTITLE=Boxcar Brian - Thanks For The Memory
DYEAR=1900
DGENRE=Country
TTITLE0=Thanks For The Memory
TTITLE1=I Don't Need A Picture
TTITLE2=Jim Reeves Medley
TTITLE3=Yonder Comes A Sucker
TTITLE4=I Still Love You
TTITLE5=The Mighty 143
TTITLE6=Boxcar's Train Medley
TTITLE7=Mother's Chair
TTITLE8=Your Wedding Day
TTITLE9=Stop The World
TTITLE10=Among The Wicklow Hills
TTITLE11=The Lord Made A Hobo Out of Me
EXTD=
EXTT0=
EXTT1=
EXTT2=
EXTT3=
EXTT4=
EXTT5=
EXTT6=
EXTT7=
EXTT8=
EXTT9=
EXTT10=
EXTT11=
PLAYORDER=
